<?xml version="1.0" encoding="UTF-8"?>
<svg id="Layer_1" xmlns="http://www.w3.org/2000/svg" version="1.1" viewBox="0 0 346.91 32">
  <!-- Generator: Adobe Illustrator 29.8.1, SVG Export Plug-In . SVG Version: 2.1.1 Build 2)  -->
  <defs>
    <style>
      .st0 {
        fill: #fff;
      }
    </style>
  </defs>
  <path class="st0" d="M116.33,22.87c-2.06.09-4.08-.6-5.66-1.93-1.44-1.23-2.24-3.04-2.2-4.93-.05-1.9.76-3.71,2.2-4.95,1.57-1.34,3.59-2.04,5.66-1.95,1.33-.02,2.66.24,3.88.78,1.11.5,2.07,1.29,2.79,2.28l-1.6,1.12c-1.12-1.54-2.8-2.31-5.05-2.31-1.51-.06-2.98.45-4.13,1.42-1.06.88-1.67,2.2-1.64,3.58-.02,1.38.58,2.7,1.64,3.58,1.15.97,2.62,1.48,4.13,1.42,2.17.05,4.21-1.02,5.39-2.84l1.62,1.13c-1.53,2.41-3.87,3.61-7.03,3.61Z"/>
  <path class="st0" d="M131.83,11.22h-5.48v-1.81h13v1.81h-5.48v11.23h-2.03v-11.23Z"/>
  <path class="st0" d="M143.02,19.08c.91.61,1.9,1.08,2.95,1.41.97.33,1.99.51,3.02.52,1,.05,1.99-.2,2.84-.72.63-.39,1.02-1.08,1.03-1.82,0-1.5-1.36-2.25-4.07-2.26-2.15,0-3.72-.24-4.72-.72-1-.5-1.59-1.56-1.47-2.68-.01-1.08.53-2.09,1.43-2.68,1.17-.75,2.54-1.11,3.92-1.03,2.24,0,4.42.65,6.3,1.87l-1.05,1.68c-.81-.54-1.7-.96-2.63-1.25-.86-.28-1.76-.43-2.66-.44-.83-.04-1.65.14-2.38.53-.52.25-.87.76-.89,1.34-.02.59.39,1.11.96,1.25,1,.28,2.04.4,3.08.36,4.16,0,6.24,1.4,6.24,4.19,0,1.21-.59,2.34-1.58,3.04-1.21.89-2.69,1.33-4.19,1.25-2.54.02-5.03-.7-7.17-2.07l1.04-1.78Z"/>
  <path class="st0" d="M168.22,11.22h-5.48v-1.81h12.99v1.81h-5.48v11.23h-2.03v-11.23Z"/>
  <path class="st0" d="M181.68,9.48v8.35c0,1.25.29,2.12.89,2.55.59.42,1.76.62,3.51.62s2.91-.21,3.51-.62.89-1.25.89-2.56v-8.33h2.03v8.87c0,1.6-.51,2.76-1.52,3.47s-2.66,1.06-4.93,1.06-3.95-.34-4.92-1.04-1.47-1.87-1.47-3.49v-8.87h2.01Z"/>
  <path class="st0" d="M200.88,22.44h-2.03v-12.97h8.95c1.12-.07,2.22.26,3.12.94.76.67,1.17,1.66,1.12,2.68,0,1.84-1.36,3.4-3.19,3.66l3.58,5.7h-2.2l-3.68-5.68h-5.67v5.68ZM207.8,14.86c1.45,0,2.17-.59,2.17-1.78s-.72-1.77-2.15-1.75h-6.94v3.52h6.92Z"/>
  <path class="st0" d="M217.62,9.41h2.09v13.03h-2.09v-13.03Z"/>
  <path class="st0" d="M225.92,19.08c.91.61,1.9,1.08,2.95,1.41.97.33,1.99.51,3.02.52,1,.05,1.99-.2,2.84-.72.63-.39,1.02-1.08,1.03-1.82,0-1.5-1.36-2.25-4.07-2.26-2.15,0-3.72-.24-4.72-.72-1.01-.49-1.61-1.56-1.5-2.68-.01-1.08.53-2.09,1.43-2.68,1.17-.75,2.54-1.11,3.92-1.03,2.24,0,4.42.65,6.3,1.87l-1,1.68c-.81-.54-1.7-.96-2.63-1.25-.86-.28-1.76-.43-2.66-.44-.83-.04-1.65.14-2.38.53-.52.25-.87.76-.89,1.34-.02.59.39,1.11.96,1.25,1,.28,2.04.4,3.08.36,4.16,0,6.24,1.4,6.24,4.19,0,1.21-.59,2.34-1.58,3.04-1.21.89-2.69,1.33-4.19,1.25-2.53,0-5.01-.74-7.12-2.12l.97-1.73Z"/>
  <path class="st0" d="M243.33,9.41h1.68l5.33,7.64,5.33-7.64h1.7v13.03h-2.03v-9.36l-4.99,7.25-4.99-7.25v9.36h-2.03v-13.03Z"/>
  <path class="st0" d="M262.56,15.98c-.03-1.89.78-3.69,2.21-4.91,1.6-1.35,3.64-2.05,5.73-1.96,2.1-.1,4.15.59,5.76,1.93,1.45,1.23,2.26,3.04,2.21,4.94.04,1.89-.77,3.7-2.21,4.93-3.38,2.62-8.11,2.62-11.5,0-1.44-1.23-2.25-3.04-2.21-4.93ZM276.4,15.98c.02-1.37-.57-2.68-1.62-3.57-2.52-1.9-5.99-1.9-8.51,0-1.06.89-1.65,2.2-1.62,3.58-.03,1.37.56,2.69,1.6,3.58,2.53,1.9,6.01,1.9,8.54,0,1.05-.9,1.64-2.22,1.6-3.59Z"/>
  <path class="st0" d="M83.78,11.25l-13.21,7.67c-.27-1-.41-2.04-.41-3.08.1-3.77,1.89-7.3,4.87-9.62v-2.18c-4.03,2.59-6.51,7.01-6.62,11.8,0,1.6.28,3.19.82,4.69.09.24.28.44.52.52.1.03.2.05.3.05.15,0,.31-.04.44-.11l13.27-7.69v-2.05Z"/>
  <path class="st0" d="M95.25,16.39c-.28-.3-.73-.38-1.09-.18l-17.62,10.23c-.98-.51-1.88-1.15-2.68-1.91l20.72-12.02v-2.03l-22.59,13.1s-.06.04-.09.06c-.2.15-.33.38-.35.62-.02.25.06.49.23.68,1.23,1.4,2.73,2.53,4.42,3.32.27.12.58.11.84-.05l16.41-9.51c-1.36,5.29-6.11,9.01-11.58,9.06h-.31v1.76h.31c7.07-.05,12.95-5.44,13.61-12.48.01-.24-.07-.48-.23-.65Z"/>
  <path class="st0" d="M92.36,7.71c0-.12-.02-.23-.07-.34-.39-.46-.8-.9-1.25-1.3-2.61-2.29-5.96-3.56-9.44-3.59-.74,0-1.49.06-2.22.18v1.69c.43-.06.99-.1,1.43-.12,1.55-.05,3.11.16,4.59.62l-10.32,5.93v2.03h0l12.29-7.18.41.22c.81.48,1.56,1.05,2.24,1.7h0l-1.9,1.16v2.05l3.12-1.82.62-.37c.05-.03.11-.07.16-.11.19-.17.29-.4.3-.65v-.07l.02-.02Z"/>
  <path class="st0" d="M116.33,22.87c-2.06.09-4.08-.6-5.66-1.93-1.44-1.23-2.24-3.04-2.2-4.93-.05-1.9.76-3.71,2.2-4.95,1.57-1.34,3.59-2.04,5.66-1.95,1.33-.02,2.66.24,3.88.78,1.11.5,2.07,1.29,2.79,2.28l-1.6,1.12c-1.12-1.54-2.8-2.31-5.05-2.31-1.51-.06-2.98.45-4.13,1.42-1.06.88-1.67,2.2-1.64,3.58-.02,1.38.58,2.7,1.64,3.58,1.15.97,2.62,1.48,4.13,1.42,2.17.05,4.21-1.02,5.39-2.84l1.62,1.13c-1.53,2.41-3.87,3.61-7.03,3.61Z"/>
  <path class="st0" d="M131.83,11.22h-5.48v-1.81h13v1.81h-5.48v11.23h-2.03v-11.23Z"/>
  <path class="st0" d="M143.02,19.08c.91.61,1.9,1.08,2.95,1.41.97.33,1.99.51,3.02.52,1,.05,1.99-.2,2.84-.72.63-.39,1.02-1.08,1.03-1.82,0-1.5-1.36-2.25-4.07-2.26-2.15,0-3.72-.24-4.72-.72-1-.5-1.59-1.56-1.47-2.68-.01-1.08.53-2.09,1.43-2.68,1.17-.75,2.54-1.11,3.92-1.03,2.24,0,4.42.65,6.3,1.87l-1.05,1.68c-.81-.54-1.7-.96-2.63-1.25-.86-.28-1.76-.43-2.66-.44-.83-.04-1.65.14-2.38.53-.52.25-.87.76-.89,1.34-.02.59.39,1.11.96,1.25,1,.28,2.04.4,3.08.36,4.16,0,6.24,1.4,6.24,4.19,0,1.21-.59,2.34-1.58,3.04-1.21.89-2.69,1.33-4.19,1.25-2.54.02-5.03-.7-7.17-2.07l1.04-1.78Z"/>
  <path class="st0" d="M168.22,11.22h-5.48v-1.81h12.99v1.81h-5.48v11.23h-2.03v-11.23Z"/>
  <path class="st0" d="M181.68,9.48v8.35c0,1.25.29,2.12.89,2.55.59.42,1.76.62,3.51.62s2.91-.21,3.51-.62.89-1.25.89-2.56v-8.33h2.03v8.87c0,1.6-.51,2.76-1.52,3.47s-2.66,1.06-4.93,1.06-3.95-.34-4.92-1.04-1.47-1.87-1.47-3.49v-8.87h2.01Z"/>
  <path class="st0" d="M200.88,22.44h-2.03v-12.97h8.95c1.12-.07,2.22.26,3.12.94.76.67,1.17,1.66,1.12,2.68,0,1.84-1.36,3.4-3.19,3.66l3.58,5.7h-2.2l-3.68-5.68h-5.67v5.68ZM207.8,14.86c1.45,0,2.17-.59,2.17-1.78s-.72-1.77-2.15-1.75h-6.94v3.52h6.92Z"/>
  <path class="st0" d="M217.62,9.41h2.09v13.03h-2.09v-13.03Z"/>
  <path class="st0" d="M225.92,19.08c.91.61,1.9,1.08,2.95,1.41.97.33,1.99.51,3.02.52,1,.05,1.99-.2,2.84-.72.63-.39,1.02-1.08,1.03-1.82,0-1.5-1.36-2.25-4.07-2.26-2.15,0-3.72-.24-4.72-.72-1.01-.49-1.61-1.56-1.5-2.68-.01-1.08.53-2.09,1.43-2.68,1.17-.75,2.54-1.11,3.92-1.03,2.24,0,4.42.65,6.3,1.87l-1,1.68c-.81-.54-1.7-.96-2.63-1.25-.86-.28-1.76-.43-2.66-.44-.83-.04-1.65.14-2.38.53-.52.25-.87.76-.89,1.34-.02.59.39,1.11.96,1.25,1,.28,2.04.4,3.08.36,4.16,0,6.24,1.4,6.24,4.19,0,1.21-.59,2.34-1.58,3.04-1.21.89-2.69,1.33-4.19,1.25-2.53,0-5.01-.74-7.12-2.12l.97-1.73Z"/>
  <path class="st0" d="M243.33,9.41h1.68l5.33,7.64,5.33-7.64h1.7v13.03h-2.03v-9.36l-4.99,7.25-4.99-7.25v9.36h-2.03v-13.03Z"/>
  <path class="st0" d="M262.56,15.98c-.03-1.89.78-3.69,2.21-4.91,1.6-1.35,3.64-2.05,5.73-1.96,2.1-.1,4.15.59,5.76,1.93,1.45,1.23,2.26,3.04,2.21,4.94.04,1.89-.77,3.7-2.21,4.93-3.38,2.62-8.11,2.62-11.5,0-1.44-1.23-2.25-3.04-2.21-4.93ZM276.4,15.98c.02-1.37-.57-2.68-1.62-3.57-2.52-1.9-5.99-1.9-8.51,0-1.06.89-1.65,2.2-1.62,3.58-.03,1.37.56,2.69,1.6,3.58,2.53,1.9,6.01,1.9,8.54,0,1.05-.9,1.64-2.22,1.6-3.59Z"/>
  <path class="st0" d="M83.78,11.25l-13.21,7.67c-.27-1-.41-2.04-.41-3.08.1-3.77,1.89-7.3,4.87-9.62v-2.18c-4.03,2.59-6.51,7.01-6.62,11.8,0,1.6.28,3.19.82,4.69.09.24.28.44.52.52.1.03.2.05.3.05.15,0,.31-.04.44-.11l13.27-7.69v-2.05Z"/>
  <path class="st0" d="M95.25,16.39c-.28-.3-.73-.38-1.09-.18l-17.62,10.23c-.98-.51-1.88-1.15-2.68-1.91l20.72-12.02v-2.03l-22.59,13.1s-.06.04-.09.06c-.2.15-.33.38-.35.62-.02.25.06.49.23.68,1.23,1.4,2.73,2.53,4.42,3.32.27.12.58.11.84-.05l16.41-9.51c-1.36,5.29-6.11,9.01-11.58,9.06h-.31v1.76h.31c7.07-.05,12.95-5.44,13.61-12.48.01-.24-.07-.48-.23-.65Z"/>
  <path class="st0" d="M92.36,7.71c0-.12-.02-.23-.07-.34-.39-.46-.8-.9-1.25-1.3-2.61-2.29-5.96-3.56-9.44-3.59-.74,0-1.49.06-2.22.18v1.69c.43-.06.99-.1,1.43-.12,1.55-.05,3.11.16,4.59.62l-10.32,5.93v2.03h0l12.29-7.18.41.22c.81.48,1.56,1.05,2.24,1.7h0l-1.9,1.16v2.05l3.12-1.82.62-.37c.05-.03.11-.07.16-.11.19-.17.29-.4.3-.65v-.07l.02-.02Z"/>
</svg>